<mxfile host="app.diagrams.net" agent="Mozilla/5.0 (Macintosh; Intel Mac OS X 10_15_7) AppleWebKit/537.36 (KHTML, like Gecko) Chrome/126.0.0.0 Safari/537.36" version="24.7.5">
  <diagram name="Page-1" id="w48lXapn88ERsMdTifCj">
    <mxGraphModel dx="1026" dy="1820" grid="1" gridSize="10" guides="1" tooltips="1" connect="1" arrows="1" fold="1" page="1" pageScale="1" pageWidth="827" pageHeight="1169" math="0" shadow="0">
      <root>
        <mxCell id="0" />
        <mxCell id="1" parent="0" />
        <mxCell id="sNeMKrfmpia31ALBrFr5-2" value="&lt;h1 style=&quot;margin-top: 0px;&quot;&gt;Camera System Design&lt;/h1&gt;" style="text;html=1;whiteSpace=wrap;overflow=hidden;rounded=0;direction=south;" vertex="1" parent="1">
          <mxGeometry x="210" y="-1130" width="350" height="40" as="geometry" />
        </mxCell>
        <mxCell id="sNeMKrfmpia31ALBrFr5-5" value="&lt;div&gt;&lt;font style=&quot;font-size: 18px;&quot;&gt;1. Requirements&lt;/font&gt;&lt;/div&gt;&lt;div style=&quot;font-size: 14px;&quot;&gt;&lt;ol&gt;&lt;li&gt;&lt;font style=&quot;font-size: 14px;&quot;&gt;The camera System should be able to take picture&lt;/font&gt;&lt;/li&gt;&lt;li&gt;&lt;font style=&quot;font-size: 14px;&quot;&gt;The camera system should respond to user requests.&lt;/font&gt;&lt;/li&gt;&lt;li&gt;&lt;font style=&quot;font-size: 14px;&quot;&gt;The came system should return error messages to the user if there is any error in capturing an image.&lt;/font&gt;&lt;/li&gt;&lt;li&gt;&lt;font style=&quot;font-size: 14px;&quot;&gt;Priority should be given to tasks which need to be serviced urgently.&lt;/font&gt;&lt;/li&gt;&lt;li&gt;&lt;font style=&quot;font-size: 14px;&quot;&gt;For example, we can have High, Medium, Low, priorities.&lt;/font&gt;&lt;/li&gt;&lt;/ol&gt;&lt;/div&gt;" style="text;html=1;align=left;verticalAlign=middle;whiteSpace=wrap;rounded=0;" vertex="1" parent="1">
          <mxGeometry x="210" y="-1050" width="380" height="150" as="geometry" />
        </mxCell>
        <mxCell id="sNeMKrfmpia31ALBrFr5-8" value="CameraSystem" style="swimlane;fontStyle=1;align=center;verticalAlign=top;childLayout=stackLayout;horizontal=1;startSize=26;horizontalStack=0;resizeParent=1;resizeParentMax=0;resizeLast=0;collapsible=1;marginBottom=0;whiteSpace=wrap;html=1;" vertex="1" parent="1">
          <mxGeometry x="180" y="-840" width="160" height="210" as="geometry" />
        </mxCell>
        <mxCell id="sNeMKrfmpia31ALBrFr5-10" value="" style="line;strokeWidth=1;fillColor=none;align=left;verticalAlign=middle;spacingTop=-1;spacingLeft=3;spacingRight=3;rotatable=0;labelPosition=right;points=[];portConstraint=eastwest;strokeColor=inherit;" vertex="1" parent="sNeMKrfmpia31ALBrFr5-8">
          <mxGeometry y="26" width="160" height="8" as="geometry" />
        </mxCell>
        <mxCell id="sNeMKrfmpia31ALBrFr5-9" value="Map&amp;lt;priority,List&amp;lt;Camera&amp;gt;&amp;nbsp;&lt;div&gt;&lt;br&gt;&lt;/div&gt;" style="text;strokeColor=none;fillColor=none;align=left;verticalAlign=top;spacingLeft=4;spacingRight=4;overflow=hidden;rotatable=0;points=[[0,0.5],[1,0.5]];portConstraint=eastwest;whiteSpace=wrap;html=1;" vertex="1" parent="sNeMKrfmpia31ALBrFr5-8">
          <mxGeometry y="34" width="160" height="104" as="geometry" />
        </mxCell>
        <mxCell id="sNeMKrfmpia31ALBrFr5-11" value="takeImage(client): response/ error&lt;div&gt;get(): List&amp;lt;Images&amp;gt;&lt;/div&gt;&lt;div&gt;&lt;br&gt;&lt;div&gt;&lt;br&gt;&lt;/div&gt;&lt;/div&gt;" style="text;strokeColor=none;fillColor=none;align=left;verticalAlign=top;spacingLeft=4;spacingRight=4;overflow=hidden;rotatable=0;points=[[0,0.5],[1,0.5]];portConstraint=eastwest;whiteSpace=wrap;html=1;" vertex="1" parent="sNeMKrfmpia31ALBrFr5-8">
          <mxGeometry y="138" width="160" height="72" as="geometry" />
        </mxCell>
        <mxCell id="sNeMKrfmpia31ALBrFr5-16" value="Client" style="swimlane;fontStyle=1;align=center;verticalAlign=top;childLayout=stackLayout;horizontal=1;startSize=26;horizontalStack=0;resizeParent=1;resizeParentMax=0;resizeLast=0;collapsible=1;marginBottom=0;whiteSpace=wrap;html=1;" vertex="1" parent="1">
          <mxGeometry y="-820" width="160" height="110" as="geometry" />
        </mxCell>
        <mxCell id="sNeMKrfmpia31ALBrFr5-17" value="id: int&lt;div&gt;List&amp;lt;Images&amp;gt; images&lt;/div&gt;" style="text;strokeColor=none;fillColor=none;align=left;verticalAlign=top;spacingLeft=4;spacingRight=4;overflow=hidden;rotatable=0;points=[[0,0.5],[1,0.5]];portConstraint=eastwest;whiteSpace=wrap;html=1;" vertex="1" parent="sNeMKrfmpia31ALBrFr5-16">
          <mxGeometry y="26" width="160" height="54" as="geometry" />
        </mxCell>
        <mxCell id="sNeMKrfmpia31ALBrFr5-18" value="" style="line;strokeWidth=1;fillColor=none;align=left;verticalAlign=middle;spacingTop=-1;spacingLeft=3;spacingRight=3;rotatable=0;labelPosition=right;points=[];portConstraint=eastwest;strokeColor=inherit;" vertex="1" parent="sNeMKrfmpia31ALBrFr5-16">
          <mxGeometry y="80" width="160" height="8" as="geometry" />
        </mxCell>
        <mxCell id="sNeMKrfmpia31ALBrFr5-19" value="&lt;div&gt;&lt;div&gt;&lt;br&gt;&lt;/div&gt;&lt;/div&gt;" style="text;strokeColor=none;fillColor=none;align=left;verticalAlign=top;spacingLeft=4;spacingRight=4;overflow=hidden;rotatable=0;points=[[0,0.5],[1,0.5]];portConstraint=eastwest;whiteSpace=wrap;html=1;" vertex="1" parent="sNeMKrfmpia31ALBrFr5-16">
          <mxGeometry y="88" width="160" height="22" as="geometry" />
        </mxCell>
        <mxCell id="sNeMKrfmpia31ALBrFr5-23" style="edgeStyle=orthogonalEdgeStyle;rounded=0;orthogonalLoop=1;jettySize=auto;html=1;exitX=0.5;exitY=1;exitDx=0;exitDy=0;" edge="1" parent="1" source="sNeMKrfmpia31ALBrFr5-20" target="sNeMKrfmpia31ALBrFr5-24">
          <mxGeometry relative="1" as="geometry">
            <mxPoint x="670" y="-670" as="targetPoint" />
          </mxGeometry>
        </mxCell>
        <mxCell id="sNeMKrfmpia31ALBrFr5-27" style="edgeStyle=orthogonalEdgeStyle;rounded=0;orthogonalLoop=1;jettySize=auto;html=1;exitX=0.75;exitY=1;exitDx=0;exitDy=0;" edge="1" parent="1" source="sNeMKrfmpia31ALBrFr5-20" target="sNeMKrfmpia31ALBrFr5-26">
          <mxGeometry relative="1" as="geometry" />
        </mxCell>
        <mxCell id="sNeMKrfmpia31ALBrFr5-20" value="public interface Camera{&lt;div&gt;&lt;br&gt;&lt;/div&gt;&lt;div&gt;takeImage(): Response&lt;br&gt;&lt;div&gt;&lt;span style=&quot;background-color: initial;&quot;&gt;&lt;br&gt;&lt;/span&gt;&lt;/div&gt;&lt;div&gt;&lt;span style=&quot;background-color: initial;&quot;&gt;}&lt;/span&gt;&lt;/div&gt;&lt;/div&gt;" style="html=1;whiteSpace=wrap;" vertex="1" parent="1">
          <mxGeometry x="580" y="-860" width="160" height="110" as="geometry" />
        </mxCell>
        <mxCell id="sNeMKrfmpia31ALBrFr5-21" value="&lt;p style=&quot;margin:0px;margin-top:4px;text-align:center;&quot;&gt;&lt;b&gt;HighPriorityImageCaptureCamera&lt;/b&gt;&lt;/p&gt;&lt;p style=&quot;margin:0px;margin-top:4px;text-align:center;&quot;&gt;&lt;br&gt;&lt;/p&gt;&lt;p style=&quot;margin:0px;margin-top:4px;text-align:center;&quot;&gt;image&lt;/p&gt;" style="verticalAlign=top;align=left;overflow=fill;html=1;whiteSpace=wrap;" vertex="1" parent="1">
          <mxGeometry x="350" y="-680" width="200" height="80" as="geometry" />
        </mxCell>
        <mxCell id="sNeMKrfmpia31ALBrFr5-22" style="edgeStyle=orthogonalEdgeStyle;rounded=0;orthogonalLoop=1;jettySize=auto;html=1;exitX=0.25;exitY=1;exitDx=0;exitDy=0;entryX=0.364;entryY=-0.012;entryDx=0;entryDy=0;entryPerimeter=0;" edge="1" parent="1" source="sNeMKrfmpia31ALBrFr5-20" target="sNeMKrfmpia31ALBrFr5-21">
          <mxGeometry relative="1" as="geometry" />
        </mxCell>
        <mxCell id="sNeMKrfmpia31ALBrFr5-24" value="&lt;p style=&quot;margin:0px;margin-top:4px;text-align:center;&quot;&gt;&lt;b&gt;MediumPriorityImageCaptureCamera&lt;/b&gt;&lt;/p&gt;" style="verticalAlign=top;align=left;overflow=fill;html=1;whiteSpace=wrap;" vertex="1" parent="1">
          <mxGeometry x="470" y="-584" width="220" height="40" as="geometry" />
        </mxCell>
        <mxCell id="sNeMKrfmpia31ALBrFr5-26" value="&lt;p style=&quot;margin:0px;margin-top:4px;text-align:center;&quot;&gt;&lt;b&gt;LowPriorityImageCaptureCamera&lt;/b&gt;&lt;/p&gt;" style="verticalAlign=top;align=left;overflow=fill;html=1;whiteSpace=wrap;" vertex="1" parent="1">
          <mxGeometry x="620" y="-650" width="200" height="40" as="geometry" />
        </mxCell>
        <mxCell id="sNeMKrfmpia31ALBrFr5-28" value="" style="rounded=0;whiteSpace=wrap;html=1;" vertex="1" parent="1">
          <mxGeometry x="250" y="-320" width="350" height="380" as="geometry" />
        </mxCell>
        <mxCell id="sNeMKrfmpia31ALBrFr5-29" value="&lt;font style=&quot;font-size: 18px;&quot;&gt;Use Case diagram&lt;/font&gt;" style="text;html=1;align=center;verticalAlign=middle;resizable=0;points=[];autosize=1;strokeColor=none;fillColor=none;" vertex="1" parent="1">
          <mxGeometry x="315" y="-435" width="170" height="40" as="geometry" />
        </mxCell>
        <mxCell id="sNeMKrfmpia31ALBrFr5-30" value="Camera System" style="text;html=1;align=center;verticalAlign=middle;resizable=0;points=[];autosize=1;strokeColor=none;fillColor=none;" vertex="1" parent="1">
          <mxGeometry x="304" y="-382" width="110" height="30" as="geometry" />
        </mxCell>
        <mxCell id="sNeMKrfmpia31ALBrFr5-37" style="edgeStyle=orthogonalEdgeStyle;rounded=0;orthogonalLoop=1;jettySize=auto;html=1;exitX=1;exitY=0.3333333333333333;exitDx=0;exitDy=0;exitPerimeter=0;" edge="1" parent="1" source="sNeMKrfmpia31ALBrFr5-34" target="sNeMKrfmpia31ALBrFr5-36">
          <mxGeometry relative="1" as="geometry">
            <Array as="points">
              <mxPoint x="370" y="-160" />
            </Array>
          </mxGeometry>
        </mxCell>
        <mxCell id="sNeMKrfmpia31ALBrFr5-45" value="Response will be return immediately&amp;nbsp;" style="edgeLabel;html=1;align=center;verticalAlign=middle;resizable=0;points=[];" vertex="1" connectable="0" parent="sNeMKrfmpia31ALBrFr5-37">
          <mxGeometry x="-0.0992" y="-4" relative="1" as="geometry">
            <mxPoint y="6" as="offset" />
          </mxGeometry>
        </mxCell>
        <mxCell id="sNeMKrfmpia31ALBrFr5-39" style="edgeStyle=orthogonalEdgeStyle;rounded=0;orthogonalLoop=1;jettySize=auto;html=1;exitX=0.5;exitY=0.5;exitDx=0;exitDy=0;exitPerimeter=0;" edge="1" parent="1">
          <mxGeometry relative="1" as="geometry">
            <mxPoint x="100" y="-120" as="sourcePoint" />
            <mxPoint x="400" y="-20" as="targetPoint" />
          </mxGeometry>
        </mxCell>
        <mxCell id="sNeMKrfmpia31ALBrFr5-41" style="edgeStyle=orthogonalEdgeStyle;rounded=0;orthogonalLoop=1;jettySize=auto;html=1;exitX=0.75;exitY=0.1;exitDx=0;exitDy=0;exitPerimeter=0;entryX=0.5;entryY=0;entryDx=0;entryDy=0;" edge="1" parent="1" source="sNeMKrfmpia31ALBrFr5-34" target="sNeMKrfmpia31ALBrFr5-36">
          <mxGeometry relative="1" as="geometry" />
        </mxCell>
        <mxCell id="sNeMKrfmpia31ALBrFr5-34" value="Client" style="shape=umlActor;verticalLabelPosition=bottom;verticalAlign=top;html=1;outlineConnect=0;" vertex="1" parent="1">
          <mxGeometry x="70" y="-180" width="30" height="60" as="geometry" />
        </mxCell>
        <mxCell id="sNeMKrfmpia31ALBrFr5-36" value="takeImage" style="ellipse;whiteSpace=wrap;html=1;" vertex="1" parent="1">
          <mxGeometry x="354" y="-230" width="120" height="40" as="geometry" />
        </mxCell>
        <mxCell id="sNeMKrfmpia31ALBrFr5-38" value="getImages" style="ellipse;whiteSpace=wrap;html=1;" vertex="1" parent="1">
          <mxGeometry x="325" y="-50" width="120" height="40" as="geometry" />
        </mxCell>
        <mxCell id="sNeMKrfmpia31ALBrFr5-40" value="HighPriorityReuest" style="text;html=1;align=center;verticalAlign=middle;resizable=0;points=[];autosize=1;strokeColor=none;fillColor=none;" vertex="1" parent="1">
          <mxGeometry x="110" y="-180" width="120" height="30" as="geometry" />
        </mxCell>
        <mxCell id="sNeMKrfmpia31ALBrFr5-44" style="edgeStyle=orthogonalEdgeStyle;rounded=0;orthogonalLoop=1;jettySize=auto;html=1;exitX=0;exitY=1;exitDx=0;exitDy=0;entryX=1;entryY=0.3333333333333333;entryDx=0;entryDy=0;entryPerimeter=0;" edge="1" parent="1" source="sNeMKrfmpia31ALBrFr5-36" target="sNeMKrfmpia31ALBrFr5-34">
          <mxGeometry relative="1" as="geometry" />
        </mxCell>
        <mxCell id="sNeMKrfmpia31ALBrFr5-46" value="low priortiy reuqest" style="text;html=1;align=center;verticalAlign=middle;resizable=0;points=[];autosize=1;strokeColor=none;fillColor=none;" vertex="1" parent="1">
          <mxGeometry x="90" y="-202" width="120" height="30" as="geometry" />
        </mxCell>
        <mxCell id="sNeMKrfmpia31ALBrFr5-49" value="High Level Design" style="text;html=1;align=center;verticalAlign=middle;resizable=0;points=[];autosize=1;strokeColor=none;fillColor=none;fontSize=21;" vertex="1" parent="1">
          <mxGeometry x="290" y="190" width="190" height="40" as="geometry" />
        </mxCell>
        <mxCell id="sNeMKrfmpia31ALBrFr5-61" style="edgeStyle=orthogonalEdgeStyle;rounded=0;orthogonalLoop=1;jettySize=auto;html=1;exitX=1;exitY=0.25;exitDx=0;exitDy=0;" edge="1" parent="1" source="sNeMKrfmpia31ALBrFr5-58" target="sNeMKrfmpia31ALBrFr5-60">
          <mxGeometry relative="1" as="geometry" />
        </mxCell>
        <mxCell id="sNeMKrfmpia31ALBrFr5-71" style="edgeStyle=orthogonalEdgeStyle;rounded=0;orthogonalLoop=1;jettySize=auto;html=1;exitX=0.75;exitY=1;exitDx=0;exitDy=0;" edge="1" parent="1" source="sNeMKrfmpia31ALBrFr5-58">
          <mxGeometry relative="1" as="geometry">
            <mxPoint x="410" y="550" as="targetPoint" />
          </mxGeometry>
        </mxCell>
        <mxCell id="sNeMKrfmpia31ALBrFr5-99" style="edgeStyle=orthogonalEdgeStyle;rounded=0;orthogonalLoop=1;jettySize=auto;html=1;exitX=0;exitY=1;exitDx=0;exitDy=0;entryX=1;entryY=0.75;entryDx=0;entryDy=0;" edge="1" parent="1" source="sNeMKrfmpia31ALBrFr5-58" target="sNeMKrfmpia31ALBrFr5-85">
          <mxGeometry relative="1" as="geometry" />
        </mxCell>
        <mxCell id="sNeMKrfmpia31ALBrFr5-58" value="TaskDeciderService" style="whiteSpace=wrap;html=1;aspect=fixed;" vertex="1" parent="1">
          <mxGeometry x="290" y="330" width="110" height="110" as="geometry" />
        </mxCell>
        <mxCell id="sNeMKrfmpia31ALBrFr5-78" style="edgeStyle=orthogonalEdgeStyle;rounded=0;orthogonalLoop=1;jettySize=auto;html=1;exitX=1;exitY=0.75;exitDx=0;exitDy=0;" edge="1" parent="1" source="sNeMKrfmpia31ALBrFr5-60" target="sNeMKrfmpia31ALBrFr5-77">
          <mxGeometry relative="1" as="geometry" />
        </mxCell>
        <mxCell id="sNeMKrfmpia31ALBrFr5-81" style="edgeStyle=orthogonalEdgeStyle;rounded=0;orthogonalLoop=1;jettySize=auto;html=1;exitX=0.25;exitY=1;exitDx=0;exitDy=0;entryX=1;entryY=0.75;entryDx=0;entryDy=0;" edge="1" parent="1" source="sNeMKrfmpia31ALBrFr5-60" target="sNeMKrfmpia31ALBrFr5-58">
          <mxGeometry relative="1" as="geometry" />
        </mxCell>
        <mxCell id="sNeMKrfmpia31ALBrFr5-112" style="edgeStyle=orthogonalEdgeStyle;rounded=0;orthogonalLoop=1;jettySize=auto;html=1;exitX=1;exitY=1;exitDx=0;exitDy=0;" edge="1" parent="1" source="sNeMKrfmpia31ALBrFr5-60" target="sNeMKrfmpia31ALBrFr5-105">
          <mxGeometry relative="1" as="geometry" />
        </mxCell>
        <mxCell id="sNeMKrfmpia31ALBrFr5-60" value="HighPriorityCameraSerive" style="whiteSpace=wrap;html=1;" vertex="1" parent="1">
          <mxGeometry x="560" y="330" width="150" height="60" as="geometry" />
        </mxCell>
        <mxCell id="sNeMKrfmpia31ALBrFr5-80" style="edgeStyle=orthogonalEdgeStyle;rounded=0;orthogonalLoop=1;jettySize=auto;html=1;exitX=1;exitY=0.75;exitDx=0;exitDy=0;entryX=0.855;entryY=1;entryDx=0;entryDy=-4.35;entryPerimeter=0;" edge="1" parent="1" source="sNeMKrfmpia31ALBrFr5-62" target="sNeMKrfmpia31ALBrFr5-77">
          <mxGeometry relative="1" as="geometry">
            <mxPoint x="810" y="480" as="targetPoint" />
          </mxGeometry>
        </mxCell>
        <mxCell id="sNeMKrfmpia31ALBrFr5-62" value="LowPriorityCameraSerive" style="whiteSpace=wrap;html=1;" vertex="1" parent="1">
          <mxGeometry x="590" y="650" width="150" height="60" as="geometry" />
        </mxCell>
        <mxCell id="sNeMKrfmpia31ALBrFr5-63" value="MediumPriorityCameraSerive" style="whiteSpace=wrap;html=1;" vertex="1" parent="1">
          <mxGeometry x="570" y="470" width="170" height="60" as="geometry" />
        </mxCell>
        <mxCell id="sNeMKrfmpia31ALBrFr5-65" value="LowPrirotyAsyncQueueTask" style="shape=process;whiteSpace=wrap;html=1;backgroundOutline=1;" vertex="1" parent="1">
          <mxGeometry x="290" y="640" width="165" height="60" as="geometry" />
        </mxCell>
        <mxCell id="sNeMKrfmpia31ALBrFr5-67" style="edgeStyle=orthogonalEdgeStyle;rounded=0;orthogonalLoop=1;jettySize=auto;html=1;exitX=1;exitY=0.75;exitDx=0;exitDy=0;entryX=0;entryY=0.75;entryDx=0;entryDy=0;" edge="1" parent="1" source="sNeMKrfmpia31ALBrFr5-65" target="sNeMKrfmpia31ALBrFr5-62">
          <mxGeometry relative="1" as="geometry" />
        </mxCell>
        <mxCell id="sNeMKrfmpia31ALBrFr5-69" value="MediumPrirotyAsyncQueueTask" style="shape=process;whiteSpace=wrap;html=1;backgroundOutline=1;" vertex="1" parent="1">
          <mxGeometry x="367.5" y="555" width="165" height="60" as="geometry" />
        </mxCell>
        <mxCell id="sNeMKrfmpia31ALBrFr5-70" style="edgeStyle=orthogonalEdgeStyle;rounded=0;orthogonalLoop=1;jettySize=auto;html=1;exitX=0.25;exitY=1;exitDx=0;exitDy=0;entryX=0.055;entryY=0.017;entryDx=0;entryDy=0;entryPerimeter=0;" edge="1" parent="1" source="sNeMKrfmpia31ALBrFr5-58" target="sNeMKrfmpia31ALBrFr5-65">
          <mxGeometry relative="1" as="geometry" />
        </mxCell>
        <mxCell id="sNeMKrfmpia31ALBrFr5-72" style="edgeStyle=orthogonalEdgeStyle;rounded=0;orthogonalLoop=1;jettySize=auto;html=1;exitX=1;exitY=0.25;exitDx=0;exitDy=0;entryX=0.459;entryY=1.067;entryDx=0;entryDy=0;entryPerimeter=0;" edge="1" parent="1" source="sNeMKrfmpia31ALBrFr5-69" target="sNeMKrfmpia31ALBrFr5-63">
          <mxGeometry relative="1" as="geometry" />
        </mxCell>
        <mxCell id="sNeMKrfmpia31ALBrFr5-77" value="S3" style="shape=cylinder3;whiteSpace=wrap;html=1;boundedLbl=1;backgroundOutline=1;size=15;" vertex="1" parent="1">
          <mxGeometry x="740" y="250" width="60" height="80" as="geometry" />
        </mxCell>
        <mxCell id="sNeMKrfmpia31ALBrFr5-79" style="edgeStyle=orthogonalEdgeStyle;rounded=0;orthogonalLoop=1;jettySize=auto;html=1;exitX=1;exitY=0.75;exitDx=0;exitDy=0;entryX=0.5;entryY=1;entryDx=0;entryDy=0;entryPerimeter=0;" edge="1" parent="1" source="sNeMKrfmpia31ALBrFr5-63" target="sNeMKrfmpia31ALBrFr5-77">
          <mxGeometry relative="1" as="geometry" />
        </mxCell>
        <mxCell id="sNeMKrfmpia31ALBrFr5-82" value="response" style="text;html=1;align=center;verticalAlign=middle;resizable=0;points=[];autosize=1;strokeColor=none;fillColor=none;" vertex="1" parent="1">
          <mxGeometry x="445" y="378" width="70" height="30" as="geometry" />
        </mxCell>
        <mxCell id="sNeMKrfmpia31ALBrFr5-103" style="edgeStyle=orthogonalEdgeStyle;rounded=0;orthogonalLoop=1;jettySize=auto;html=1;exitX=0;exitY=0.5;exitDx=0;exitDy=0;" edge="1" parent="1" source="sNeMKrfmpia31ALBrFr5-85" target="sNeMKrfmpia31ALBrFr5-92">
          <mxGeometry relative="1" as="geometry" />
        </mxCell>
        <mxCell id="sNeMKrfmpia31ALBrFr5-85" value="Api&lt;br&gt;GateWay" style="rounded=0;whiteSpace=wrap;html=1;" vertex="1" parent="1">
          <mxGeometry x="190" y="280" width="50" height="460" as="geometry" />
        </mxCell>
        <mxCell id="sNeMKrfmpia31ALBrFr5-86" style="edgeStyle=orthogonalEdgeStyle;rounded=0;orthogonalLoop=1;jettySize=auto;html=1;exitX=0.5;exitY=1;exitDx=0;exitDy=0;" edge="1" parent="1" source="sNeMKrfmpia31ALBrFr5-85" target="sNeMKrfmpia31ALBrFr5-85">
          <mxGeometry relative="1" as="geometry" />
        </mxCell>
        <mxCell id="sNeMKrfmpia31ALBrFr5-87" style="edgeStyle=orthogonalEdgeStyle;rounded=0;orthogonalLoop=1;jettySize=auto;html=1;exitX=0.5;exitY=1;exitDx=0;exitDy=0;" edge="1" parent="1" source="sNeMKrfmpia31ALBrFr5-85" target="sNeMKrfmpia31ALBrFr5-85">
          <mxGeometry relative="1" as="geometry" />
        </mxCell>
        <mxCell id="sNeMKrfmpia31ALBrFr5-89" value="client 2" style="shape=umlActor;verticalLabelPosition=bottom;verticalAlign=top;html=1;outlineConnect=0;" vertex="1" parent="1">
          <mxGeometry x="70" y="378" width="30" height="60" as="geometry" />
        </mxCell>
        <mxCell id="sNeMKrfmpia31ALBrFr5-90" value="Client 1" style="shape=umlActor;verticalLabelPosition=bottom;verticalAlign=top;html=1;outlineConnect=0;" vertex="1" parent="1">
          <mxGeometry x="70" y="520" width="30" height="60" as="geometry" />
        </mxCell>
        <mxCell id="sNeMKrfmpia31ALBrFr5-104" style="edgeStyle=orthogonalEdgeStyle;rounded=0;orthogonalLoop=1;jettySize=auto;html=1;exitX=1;exitY=0.3333333333333333;exitDx=0;exitDy=0;exitPerimeter=0;" edge="1" parent="1" source="sNeMKrfmpia31ALBrFr5-92" target="sNeMKrfmpia31ALBrFr5-85">
          <mxGeometry relative="1" as="geometry" />
        </mxCell>
        <mxCell id="sNeMKrfmpia31ALBrFr5-92" value="clinet 3" style="shape=umlActor;verticalLabelPosition=bottom;verticalAlign=top;html=1;outlineConnect=0;" vertex="1" parent="1">
          <mxGeometry x="70" y="660" width="30" height="60" as="geometry" />
        </mxCell>
        <mxCell id="sNeMKrfmpia31ALBrFr5-96" style="edgeStyle=orthogonalEdgeStyle;rounded=0;orthogonalLoop=1;jettySize=auto;html=1;exitX=0.5;exitY=0.5;exitDx=0;exitDy=0;exitPerimeter=0;entryX=0.03;entryY=0.274;entryDx=0;entryDy=0;entryPerimeter=0;" edge="1" parent="1" source="sNeMKrfmpia31ALBrFr5-89" target="sNeMKrfmpia31ALBrFr5-85">
          <mxGeometry relative="1" as="geometry" />
        </mxCell>
        <mxCell id="sNeMKrfmpia31ALBrFr5-97" style="edgeStyle=orthogonalEdgeStyle;rounded=0;orthogonalLoop=1;jettySize=auto;html=1;exitX=1;exitY=0.5;exitDx=0;exitDy=0;entryX=0.023;entryY=0.664;entryDx=0;entryDy=0;entryPerimeter=0;" edge="1" parent="1" source="sNeMKrfmpia31ALBrFr5-85" target="sNeMKrfmpia31ALBrFr5-58">
          <mxGeometry relative="1" as="geometry" />
        </mxCell>
        <mxCell id="sNeMKrfmpia31ALBrFr5-98" style="edgeStyle=orthogonalEdgeStyle;rounded=0;orthogonalLoop=1;jettySize=auto;html=1;exitX=0.5;exitY=0.5;exitDx=0;exitDy=0;exitPerimeter=0;entryX=-0.01;entryY=0.583;entryDx=0;entryDy=0;entryPerimeter=0;" edge="1" parent="1" source="sNeMKrfmpia31ALBrFr5-90" target="sNeMKrfmpia31ALBrFr5-85">
          <mxGeometry relative="1" as="geometry" />
        </mxCell>
        <mxCell id="sNeMKrfmpia31ALBrFr5-100" value="High Priority Respne" style="text;html=1;align=center;verticalAlign=middle;resizable=0;points=[];autosize=1;strokeColor=none;fillColor=none;" vertex="1" parent="1">
          <mxGeometry x="170" y="640" width="130" height="30" as="geometry" />
        </mxCell>
        <mxCell id="sNeMKrfmpia31ALBrFr5-101" style="edgeStyle=orthogonalEdgeStyle;rounded=0;orthogonalLoop=1;jettySize=auto;html=1;exitX=0;exitY=0.5;exitDx=0;exitDy=0;entryX=1;entryY=1;entryDx=0;entryDy=0;entryPerimeter=0;" edge="1" parent="1" source="sNeMKrfmpia31ALBrFr5-85" target="sNeMKrfmpia31ALBrFr5-89">
          <mxGeometry relative="1" as="geometry" />
        </mxCell>
        <mxCell id="sNeMKrfmpia31ALBrFr5-102" style="edgeStyle=orthogonalEdgeStyle;rounded=0;orthogonalLoop=1;jettySize=auto;html=1;exitX=0;exitY=0.5;exitDx=0;exitDy=0;entryX=1;entryY=1;entryDx=0;entryDy=0;entryPerimeter=0;" edge="1" parent="1" source="sNeMKrfmpia31ALBrFr5-85" target="sNeMKrfmpia31ALBrFr5-90">
          <mxGeometry relative="1" as="geometry">
            <Array as="points">
              <mxPoint x="145" y="510" />
              <mxPoint x="145" y="620" />
              <mxPoint x="100" y="620" />
            </Array>
          </mxGeometry>
        </mxCell>
        <mxCell id="sNeMKrfmpia31ALBrFr5-105" value="DB&amp;nbsp;" style="shape=cylinder3;whiteSpace=wrap;html=1;boundedLbl=1;backgroundOutline=1;size=15;" vertex="1" parent="1">
          <mxGeometry x="880" y="410" width="60" height="80" as="geometry" />
        </mxCell>
        <mxCell id="sNeMKrfmpia31ALBrFr5-113" style="edgeStyle=orthogonalEdgeStyle;rounded=0;orthogonalLoop=1;jettySize=auto;html=1;exitX=1;exitY=1;exitDx=0;exitDy=0;entryX=0.5;entryY=1;entryDx=0;entryDy=0;entryPerimeter=0;" edge="1" parent="1" source="sNeMKrfmpia31ALBrFr5-63" target="sNeMKrfmpia31ALBrFr5-105">
          <mxGeometry relative="1" as="geometry" />
        </mxCell>
        <mxCell id="sNeMKrfmpia31ALBrFr5-114" style="edgeStyle=orthogonalEdgeStyle;rounded=0;orthogonalLoop=1;jettySize=auto;html=1;exitX=1;exitY=1;exitDx=0;exitDy=0;entryX=0.855;entryY=1;entryDx=0;entryDy=-4.35;entryPerimeter=0;" edge="1" parent="1" source="sNeMKrfmpia31ALBrFr5-62" target="sNeMKrfmpia31ALBrFr5-105">
          <mxGeometry relative="1" as="geometry" />
        </mxCell>
        <mxCell id="sNeMKrfmpia31ALBrFr5-116" value="Image" style="swimlane;fontStyle=1;align=center;verticalAlign=top;childLayout=stackLayout;horizontal=1;startSize=26;horizontalStack=0;resizeParent=1;resizeParentMax=0;resizeLast=0;collapsible=1;marginBottom=0;whiteSpace=wrap;html=1;" vertex="1" parent="1">
          <mxGeometry x="380" y="-860" width="160" height="130" as="geometry" />
        </mxCell>
        <mxCell id="sNeMKrfmpia31ALBrFr5-117" value="clientId&lt;div&gt;imageUrl&lt;/div&gt;" style="text;strokeColor=none;fillColor=none;align=left;verticalAlign=top;spacingLeft=4;spacingRight=4;overflow=hidden;rotatable=0;points=[[0,0.5],[1,0.5]];portConstraint=eastwest;whiteSpace=wrap;html=1;" vertex="1" parent="sNeMKrfmpia31ALBrFr5-116">
          <mxGeometry y="26" width="160" height="54" as="geometry" />
        </mxCell>
        <mxCell id="sNeMKrfmpia31ALBrFr5-118" value="" style="line;strokeWidth=1;fillColor=none;align=left;verticalAlign=middle;spacingTop=-1;spacingLeft=3;spacingRight=3;rotatable=0;labelPosition=right;points=[];portConstraint=eastwest;strokeColor=inherit;" vertex="1" parent="sNeMKrfmpia31ALBrFr5-116">
          <mxGeometry y="80" width="160" height="8" as="geometry" />
        </mxCell>
        <mxCell id="sNeMKrfmpia31ALBrFr5-119" value="+ get(): image" style="text;strokeColor=none;fillColor=none;align=left;verticalAlign=top;spacingLeft=4;spacingRight=4;overflow=hidden;rotatable=0;points=[[0,0.5],[1,0.5]];portConstraint=eastwest;whiteSpace=wrap;html=1;" vertex="1" parent="sNeMKrfmpia31ALBrFr5-116">
          <mxGeometry y="88" width="160" height="42" as="geometry" />
        </mxCell>
      </root>
    </mxGraphModel>
  </diagram>
</mxfile>
